<svg width="556" height="59" viewBox="0 0 556 59" fill="none" xmlns="http://www.w3.org/2000/svg">
<g clip-path="url(#clip0_17_10422)">
<path d="M67.7248 0H3.27521C1.46636 0 0 1.438 0 3.21186V48.7881C0 50.562 1.46636 52 3.27521 52H67.7248C69.5336 52 71 50.562 71 48.7881V3.21186C71 1.438 69.5336 0 67.7248 0Z" fill="#545776"/>
<path d="M47.4054 35.838C46.3561 35.8369 45.3079 35.7682 44.2677 35.6324C43.2961 35.5167 42.3458 35.268 41.4445 34.8937C40.6573 34.5765 39.9652 34.068 39.4335 33.4163C38.9058 32.7083 38.6401 31.8449 38.6802 30.9688V9.72559H44.176V19.9072L43.1214 18.1728C43.5978 17.6413 44.1884 17.2201 44.8507 16.9394C45.5343 16.6376 46.254 16.4217 46.9927 16.2971C47.5892 16.1867 48.1938 16.1244 48.8006 16.1108C51.6086 16.1108 53.7462 16.9416 55.2135 18.6032C56.6808 20.2648 57.4144 22.6929 57.4144 25.8877C57.4595 27.4934 57.2042 29.0936 56.6611 30.6091C56.2281 31.7846 55.5058 32.8371 54.5585 33.6732C53.6381 34.443 52.5588 35.0084 51.3946 35.3305C50.0964 35.6854 48.753 35.8563 47.4054 35.838ZM47.3333 31.2643C48.2522 31.3083 49.1638 31.0848 49.9535 30.6219C50.6046 30.1886 51.0979 29.5631 51.3619 28.8361C51.6631 27.9945 51.8095 27.1071 51.7942 26.2153C51.8422 25.0694 51.6504 23.9261 51.2308 22.8557C50.9305 22.1065 50.3903 21.4731 49.6915 21.0506C49.0021 20.6717 48.2217 20.4809 47.4316 20.4982C46.8766 20.5028 46.3234 20.5631 45.7809 20.678C45.2133 20.7906 44.6673 20.99 44.1629 21.269V29.5363C44.1494 29.727 44.1795 29.9181 44.2509 30.0959C44.3223 30.2737 44.4332 30.4337 44.5756 30.5641C44.904 30.8378 45.2988 31.0236 45.7219 31.1037C46.251 31.2186 46.7915 31.2747 47.3333 31.2707V31.2643Z" fill="white"/>
<path d="M13.9458 35.2855V10.6826H24.0269C28.2934 10.6826 31.4289 11.7233 33.4333 13.8045C35.4377 15.8858 36.4399 18.9478 36.4399 22.9905C36.4399 27.0246 35.4377 30.0801 33.4333 32.1571C31.4289 34.2341 28.2934 35.2726 24.0269 35.2726L13.9458 35.2855ZM20.0377 30.6797H23.3129C25.5706 30.6797 27.2825 30.0651 28.4484 28.8361C29.6144 27.6027 30.1974 25.6627 30.1974 23.0033C30.1974 20.3439 29.6144 18.3397 28.4484 17.1192C27.2825 15.8987 25.5728 15.282 23.3129 15.282H20.0377V30.6797Z" fill="white"/>
<path d="M34.1278 40.6493V42.2617H13.5923V40.6365L34.1278 40.6493Z" fill="white"/>
<path d="M54.6635 40.6493V42.2617H34.1279V40.6365L54.6635 40.6493Z" fill="white"/>
</g>
<path d="M92.1406 38.4648C92.2253 37.9701 92.1862 37.5501 92.0234 37.2051C91.8607 36.86 91.6165 36.5703 91.291 36.3359C90.9655 36.1016 90.6009 35.9062 90.1973 35.75C89.8001 35.5872 89.4062 35.444 89.0156 35.3203C88.5273 35.1576 88.0391 34.972 87.5508 34.7637C87.0625 34.5488 86.623 34.2884 86.2324 33.9824C85.8418 33.6764 85.5391 33.3053 85.3242 32.8691C85.1159 32.4264 85.0508 31.9023 85.1289 31.2969C85.2005 30.6654 85.3991 30.1152 85.7246 29.6465C86.0566 29.1777 86.4668 28.7904 86.9551 28.4844C87.4499 28.1784 87.987 27.9505 88.5664 27.8008C89.1458 27.651 89.722 27.5794 90.2949 27.5859C91.1283 27.5924 91.8704 27.7715 92.5215 28.123C93.1725 28.4746 93.6673 28.9694 94.0059 29.6074C94.3509 30.2389 94.4844 30.9811 94.4062 31.834H93.2344C93.3125 31.1764 93.2344 30.61 93 30.1348C92.7721 29.653 92.4206 29.2819 91.9453 29.0215C91.4701 28.7611 90.9102 28.6276 90.2656 28.6211C89.6927 28.6146 89.123 28.7057 88.5566 28.8945C87.9902 29.0768 87.4987 29.3665 87.082 29.7637C86.6719 30.1543 86.4147 30.6589 86.3105 31.2773C86.2324 31.7396 86.278 32.1367 86.4473 32.4688C86.623 32.7943 86.8737 33.071 87.1992 33.2988C87.5247 33.5202 87.8828 33.7057 88.2734 33.8555C88.6706 34.0052 89.0482 34.1354 89.4062 34.2461C89.9206 34.4089 90.4251 34.6042 90.9199 34.832C91.4212 35.0534 91.8672 35.3268 92.2578 35.6523C92.6484 35.9714 92.9447 36.362 93.1465 36.8242C93.3483 37.2799 93.4102 37.8203 93.332 38.4453C93.2539 39.0964 93.0456 39.6595 92.707 40.1348C92.375 40.61 91.9551 41.0007 91.4473 41.3066C90.946 41.6061 90.3991 41.8307 89.8066 41.9805C89.2207 42.1302 88.6315 42.2018 88.0391 42.1953C87.3945 42.1953 86.7858 42.1042 86.2129 41.9219C85.64 41.7331 85.1387 41.4596 84.709 41.1016C84.2793 40.737 83.957 40.291 83.7422 39.7637C83.5273 39.2363 83.4525 38.6243 83.5176 37.9277L84.6895 37.9375C84.6243 38.4779 84.6667 38.9499 84.8164 39.3535C84.9727 39.7572 85.2103 40.0924 85.5293 40.3594C85.8483 40.6263 86.2259 40.8281 86.6621 40.9648C87.0983 41.0951 87.5671 41.1634 88.0684 41.1699C88.6608 41.1764 89.2467 41.0853 89.8262 40.8965C90.4121 40.7077 90.9167 40.4147 91.3398 40.0176C91.763 39.6204 92.0299 39.1029 92.1406 38.4648ZM98.0781 31.4336L96.252 42H95.1094L96.9355 31.4336H98.0781ZM97.2676 28.3867C97.2741 28.1654 97.3555 27.9766 97.5117 27.8203C97.668 27.6641 97.8568 27.5859 98.0781 27.5859C98.306 27.5794 98.4915 27.6543 98.6348 27.8105C98.7845 27.9668 98.8496 28.1556 98.8301 28.377C98.8236 28.5918 98.7389 28.7773 98.5762 28.9336C98.4134 29.0833 98.2246 29.1582 98.0098 29.1582C97.7884 29.1647 97.6061 29.0931 97.4629 28.9434C97.3197 28.7936 97.2546 28.6081 97.2676 28.3867ZM101.896 33.7383L100.471 42H99.3281L101.154 31.4336H102.248L101.896 33.7383ZM101.262 36.0625L100.803 35.7695C100.933 35.1966 101.132 34.64 101.398 34.0996C101.665 33.5527 101.997 33.0645 102.395 32.6348C102.798 32.1986 103.26 31.8568 103.781 31.6094C104.309 31.3555 104.895 31.2318 105.539 31.2383C106.118 31.2448 106.597 31.3522 106.975 31.5605C107.359 31.7624 107.655 32.0456 107.863 32.4102C108.072 32.7682 108.202 33.1816 108.254 33.6504C108.312 34.1126 108.306 34.6042 108.234 35.125L107.072 42H105.92L107.102 35.1055C107.173 34.5977 107.17 34.1289 107.092 33.6992C107.02 33.263 106.838 32.9147 106.545 32.6543C106.252 32.3874 105.812 32.2539 105.227 32.2539C104.706 32.2474 104.227 32.3548 103.791 32.5762C103.355 32.791 102.964 33.084 102.619 33.4551C102.281 33.8197 101.994 34.2298 101.76 34.6855C101.532 35.1348 101.366 35.5938 101.262 36.0625ZM115.705 31.4336L115.549 32.3906H110.393L110.559 31.4336H115.705ZM112.912 28.7188H114.055L112.219 39.4414C112.18 39.7214 112.17 39.9915 112.189 40.252C112.215 40.5124 112.303 40.7272 112.453 40.8965C112.603 41.0592 112.847 41.1439 113.186 41.1504C113.348 41.1504 113.508 41.1406 113.664 41.1211C113.827 41.0951 113.986 41.0723 114.143 41.0527L114.094 42.0488C113.898 42.1009 113.703 42.1367 113.508 42.1562C113.312 42.1823 113.114 42.1921 112.912 42.1855C112.365 42.179 111.952 42.0456 111.672 41.7852C111.392 41.5247 111.21 41.1862 111.125 40.7695C111.04 40.3464 111.031 39.8971 111.096 39.4219L112.912 28.7188ZM122.824 40.1055L123.732 34.6465C123.804 34.1452 123.758 33.7155 123.596 33.3574C123.439 32.9928 123.186 32.7161 122.834 32.5273C122.489 32.332 122.062 32.2311 121.555 32.2246C121.105 32.2181 120.663 32.2962 120.227 32.459C119.79 32.6217 119.41 32.8594 119.084 33.1719C118.765 33.4844 118.553 33.875 118.449 34.3438L117.307 34.334C117.378 33.8327 117.554 33.39 117.834 33.0059C118.114 32.6152 118.459 32.2897 118.869 32.0293C119.286 31.7624 119.735 31.5638 120.217 31.4336C120.699 31.2969 121.174 31.2318 121.643 31.2383C122.339 31.2383 122.945 31.3783 123.459 31.6582C123.973 31.9316 124.357 32.3255 124.611 32.8398C124.872 33.3477 124.956 33.9596 124.865 34.6758L124.006 39.7832C123.947 40.1283 123.908 40.4798 123.889 40.8379C123.869 41.1895 123.895 41.5345 123.967 41.873L123.957 42H122.766C122.72 41.6875 122.704 41.3717 122.717 41.0527C122.736 40.7337 122.772 40.418 122.824 40.1055ZM123.811 35.8477L123.684 36.7461H121.525C121.122 36.7461 120.695 36.7819 120.246 36.8535C119.797 36.9251 119.367 37.0488 118.957 37.2246C118.547 37.4004 118.199 37.6445 117.912 37.957C117.626 38.263 117.443 38.6536 117.365 39.1289C117.3 39.5391 117.346 39.8971 117.502 40.2031C117.665 40.5026 117.902 40.737 118.215 40.9062C118.527 41.069 118.879 41.1536 119.27 41.1602C119.842 41.1667 120.386 41.0625 120.9 40.8477C121.415 40.6263 121.874 40.3203 122.277 39.9297C122.681 39.5391 122.997 39.0833 123.225 38.5625L123.625 39.2461C123.449 39.6888 123.202 40.0957 122.883 40.4668C122.57 40.8314 122.212 41.1439 121.809 41.4043C121.405 41.6582 120.972 41.8568 120.51 42C120.048 42.1367 119.579 42.2051 119.104 42.2051C118.524 42.1921 118.003 42.0651 117.541 41.8242C117.085 41.5833 116.73 41.2415 116.477 40.7988C116.223 40.3561 116.128 39.8353 116.193 39.2363C116.265 38.5983 116.467 38.0645 116.799 37.6348C117.137 37.1986 117.557 36.8503 118.059 36.5898C118.56 36.3294 119.1 36.1406 119.68 36.0234C120.259 35.9062 120.822 35.8477 121.369 35.8477H123.811ZM131.359 35.2227L131.193 36.2285H126.633L126.809 35.2227H131.359ZM138.889 39.2754C138.967 38.8066 138.885 38.429 138.645 38.1426C138.404 37.8496 138.088 37.625 137.697 37.4688C137.307 37.306 136.926 37.179 136.555 37.0879C136.164 36.9902 135.77 36.873 135.373 36.7363C134.982 36.5931 134.628 36.4141 134.309 36.1992C133.99 35.9779 133.742 35.7012 133.566 35.3691C133.391 35.0371 133.326 34.6302 133.371 34.1484C133.417 33.6602 133.563 33.2337 133.811 32.8691C134.064 32.5046 134.38 32.2018 134.758 31.9609C135.142 31.7135 135.555 31.5312 135.998 31.4141C136.447 31.2969 136.893 31.2383 137.336 31.2383C137.98 31.2448 138.566 31.3685 139.094 31.6094C139.628 31.8503 140.044 32.2051 140.344 32.6738C140.65 33.1361 140.78 33.7122 140.734 34.4023L139.602 34.3926C139.641 33.9303 139.556 33.543 139.348 33.2305C139.146 32.9115 138.863 32.6706 138.498 32.5078C138.14 32.3385 137.743 32.2507 137.307 32.2441C136.903 32.2441 136.499 32.3092 136.096 32.4395C135.699 32.5697 135.354 32.7715 135.061 33.0449C134.768 33.3184 134.585 33.6732 134.514 34.1094C134.455 34.4544 134.491 34.7441 134.621 34.9785C134.758 35.2064 134.95 35.3919 135.197 35.5352C135.451 35.6784 135.725 35.7956 136.018 35.8867C136.311 35.9779 136.587 36.0592 136.848 36.1309C137.382 36.2741 137.906 36.4596 138.42 36.6875C138.934 36.9154 139.344 37.2311 139.65 37.6348C139.963 38.0319 140.087 38.556 140.021 39.207C139.976 39.7279 139.823 40.1771 139.562 40.5547C139.302 40.9323 138.973 41.2448 138.576 41.4922C138.179 41.7331 137.746 41.9089 137.277 42.0195C136.809 42.1367 136.343 42.1953 135.881 42.1953C135.243 42.1888 134.637 42.0684 134.064 41.834C133.498 41.5996 133.042 41.248 132.697 40.7793C132.352 40.3105 132.202 39.7246 132.248 39.0215L133.391 39.0312C133.378 39.526 133.485 39.9329 133.713 40.252C133.941 40.571 134.247 40.8053 134.631 40.9551C135.021 41.1048 135.445 41.1829 135.9 41.1895C136.311 41.1895 136.73 41.1243 137.16 40.9941C137.59 40.8639 137.964 40.6589 138.283 40.3789C138.609 40.099 138.811 39.7311 138.889 39.2754ZM146.174 42.1953C145.458 42.1888 144.839 42.0391 144.318 41.7461C143.798 41.4531 143.374 41.0625 143.049 40.5742C142.73 40.0794 142.505 39.526 142.375 38.9141C142.251 38.3021 142.225 37.6738 142.297 37.0293L142.355 36.5996C142.44 35.9486 142.619 35.304 142.893 34.666C143.166 34.028 143.521 33.4518 143.957 32.9375C144.4 32.4167 144.917 32.0033 145.51 31.6973C146.102 31.3848 146.76 31.2318 147.482 31.2383C148.166 31.2448 148.739 31.388 149.201 31.668C149.67 31.9414 150.041 32.3092 150.314 32.7715C150.588 33.2337 150.767 33.7513 150.852 34.3242C150.943 34.8971 150.952 35.4831 150.881 36.082L150.783 36.7949H143.01L143.156 35.7988H149.758L149.787 35.6621C149.872 35.1087 149.842 34.5716 149.699 34.0508C149.562 33.5299 149.309 33.1003 148.938 32.7617C148.566 32.4232 148.068 32.2507 147.443 32.2441C146.857 32.2311 146.337 32.3548 145.881 32.6152C145.425 32.8691 145.031 33.2142 144.699 33.6504C144.374 34.0801 144.11 34.5553 143.908 35.0762C143.706 35.5905 143.566 36.0983 143.488 36.5996L143.439 37.0195C143.374 37.5078 143.378 37.9961 143.449 38.4844C143.527 38.9727 143.677 39.4219 143.898 39.832C144.126 40.2357 144.432 40.5645 144.816 40.8184C145.207 41.0658 145.682 41.1927 146.242 41.1992C146.867 41.2122 147.43 41.0885 147.932 40.8281C148.439 40.5612 148.905 40.2096 149.328 39.7734L150.012 40.3398C149.699 40.7435 149.341 41.0853 148.938 41.3652C148.54 41.6452 148.107 41.8535 147.639 41.9902C147.17 42.127 146.682 42.1953 146.174 42.1953ZM161.037 42.1953C160.321 42.1888 159.702 42.0391 159.182 41.7461C158.661 41.4531 158.238 41.0625 157.912 40.5742C157.593 40.0794 157.368 39.526 157.238 38.9141C157.115 38.3021 157.089 37.6738 157.16 37.0293L157.219 36.5996C157.303 35.9486 157.482 35.304 157.756 34.666C158.029 34.028 158.384 33.4518 158.82 32.9375C159.263 32.4167 159.781 32.0033 160.373 31.6973C160.965 31.3848 161.623 31.2318 162.346 31.2383C163.029 31.2448 163.602 31.388 164.064 31.668C164.533 31.9414 164.904 32.3092 165.178 32.7715C165.451 33.2337 165.63 33.7513 165.715 34.3242C165.806 34.8971 165.816 35.4831 165.744 36.082L165.646 36.7949H157.873L158.02 35.7988H164.621L164.65 35.6621C164.735 35.1087 164.706 34.5716 164.562 34.0508C164.426 33.5299 164.172 33.1003 163.801 32.7617C163.43 32.4232 162.932 32.2507 162.307 32.2441C161.721 32.2311 161.2 32.3548 160.744 32.6152C160.288 32.8691 159.895 33.2142 159.562 33.6504C159.237 34.0801 158.973 34.5553 158.771 35.0762C158.57 35.5905 158.43 36.0983 158.352 36.5996L158.303 37.0195C158.238 37.5078 158.241 37.9961 158.312 38.4844C158.391 38.9727 158.54 39.4219 158.762 39.832C158.99 40.2357 159.296 40.5645 159.68 40.8184C160.07 41.0658 160.546 41.1927 161.105 41.1992C161.73 41.2122 162.294 41.0885 162.795 40.8281C163.303 40.5612 163.768 40.2096 164.191 39.7734L164.875 40.3398C164.562 40.7435 164.204 41.0853 163.801 41.3652C163.404 41.6452 162.971 41.8535 162.502 41.9902C162.033 42.127 161.545 42.1953 161.037 42.1953ZM169.475 33.6699L168.029 42H166.887L168.703 31.4336H169.807L169.475 33.6699ZM168.859 36.0625L168.361 35.7695C168.492 35.1836 168.687 34.6204 168.947 34.0801C169.208 33.5332 169.533 33.0449 169.924 32.6152C170.321 32.1855 170.78 31.847 171.301 31.5996C171.828 31.3522 172.421 31.2318 173.078 31.2383C173.638 31.2448 174.107 31.3457 174.484 31.541C174.868 31.7298 175.171 31.9967 175.393 32.3418C175.614 32.6803 175.757 33.0742 175.822 33.5234C175.894 33.9727 175.897 34.4544 175.832 34.9688L174.641 42H173.498L174.689 34.998C174.768 34.4837 174.758 34.0215 174.66 33.6113C174.562 33.1947 174.357 32.8659 174.045 32.625C173.732 32.3776 173.29 32.2507 172.717 32.2441C172.176 32.2441 171.691 32.3516 171.262 32.5664C170.832 32.7812 170.458 33.071 170.139 33.4355C169.82 33.8001 169.553 34.2103 169.338 34.666C169.13 35.1217 168.97 35.5872 168.859 36.0625ZM175.842 35.1445L175.051 35.1543C175.174 34.6139 175.373 34.1061 175.646 33.6309C175.92 33.1491 176.258 32.7292 176.662 32.3711C177.066 32.013 177.518 31.7331 178.02 31.5312C178.527 31.3294 179.074 31.2318 179.66 31.2383C180.246 31.2383 180.734 31.3424 181.125 31.5508C181.516 31.7526 181.818 32.0326 182.033 32.3906C182.255 32.7422 182.398 33.1523 182.463 33.6211C182.528 34.0898 182.525 34.5879 182.453 35.1152L181.281 42H180.129L181.301 35.0957C181.379 34.5749 181.376 34.0996 181.291 33.6699C181.206 33.2337 181.008 32.8887 180.695 32.6348C180.389 32.3743 179.94 32.2474 179.348 32.2539C178.918 32.2539 178.511 32.3288 178.127 32.4785C177.749 32.6217 177.408 32.8268 177.102 33.0938C176.796 33.3542 176.532 33.6602 176.311 34.0117C176.096 34.3568 175.939 34.7344 175.842 35.1445ZM192.961 41.1992C193.482 41.1992 193.964 41.0983 194.406 40.8965C194.849 40.6947 195.223 40.4082 195.529 40.0371C195.842 39.666 196.066 39.2331 196.203 38.7383H197.307C197.176 39.4284 196.896 40.0339 196.467 40.5547C196.037 41.0755 195.513 41.4824 194.895 41.7754C194.283 42.0618 193.628 42.2018 192.932 42.1953C192.189 42.1888 191.568 42.0326 191.066 41.7266C190.565 41.4206 190.171 41.0169 189.885 40.5156C189.598 40.0078 189.406 39.4447 189.309 38.8262C189.217 38.2012 189.214 37.5697 189.299 36.9316L189.348 36.5215C189.439 35.8444 189.615 35.1901 189.875 34.5586C190.135 33.9206 190.477 33.3509 190.9 32.8496C191.33 32.3483 191.841 31.9544 192.434 31.668C193.026 31.375 193.693 31.2318 194.436 31.2383C195.171 31.2448 195.803 31.4141 196.33 31.7461C196.857 32.0716 197.258 32.5176 197.531 33.084C197.811 33.6439 197.938 34.2819 197.912 34.998L196.828 34.9883C196.848 34.4805 196.766 34.0215 196.584 33.6113C196.408 33.1947 196.135 32.8659 195.764 32.625C195.393 32.3776 194.94 32.2474 194.406 32.2344C193.801 32.2279 193.27 32.3483 192.814 32.5957C192.365 32.8366 191.981 33.1654 191.662 33.582C191.343 33.9987 191.086 34.4609 190.891 34.9688C190.695 35.4766 190.559 35.9941 190.48 36.5215L190.422 36.9316C190.363 37.4134 190.35 37.9049 190.383 38.4062C190.422 38.901 190.529 39.36 190.705 39.7832C190.887 40.1999 191.161 40.5384 191.525 40.7988C191.89 41.0527 192.368 41.1862 192.961 41.1992ZM205.559 40.1055L206.467 34.6465C206.538 34.1452 206.493 33.7155 206.33 33.3574C206.174 32.9928 205.92 32.7161 205.568 32.5273C205.223 32.332 204.797 32.2311 204.289 32.2246C203.84 32.2181 203.397 32.2962 202.961 32.459C202.525 32.6217 202.144 32.8594 201.818 33.1719C201.499 33.4844 201.288 33.875 201.184 34.3438L200.041 34.334C200.113 33.8327 200.288 33.39 200.568 33.0059C200.848 32.6152 201.193 32.2897 201.604 32.0293C202.02 31.7624 202.469 31.5638 202.951 31.4336C203.433 31.2969 203.908 31.2318 204.377 31.2383C205.074 31.2383 205.679 31.3783 206.193 31.6582C206.708 31.9316 207.092 32.3255 207.346 32.8398C207.606 33.3477 207.691 33.9596 207.6 34.6758L206.74 39.7832C206.682 40.1283 206.643 40.4798 206.623 40.8379C206.604 41.1895 206.63 41.5345 206.701 41.873L206.691 42H205.5C205.454 41.6875 205.438 41.3717 205.451 41.0527C205.471 40.7337 205.507 40.418 205.559 40.1055ZM206.545 35.8477L206.418 36.7461H204.26C203.856 36.7461 203.43 36.7819 202.98 36.8535C202.531 36.9251 202.102 37.0488 201.691 37.2246C201.281 37.4004 200.933 37.6445 200.646 37.957C200.36 38.263 200.178 38.6536 200.1 39.1289C200.035 39.5391 200.08 39.8971 200.236 40.2031C200.399 40.5026 200.637 40.737 200.949 40.9062C201.262 41.069 201.613 41.1536 202.004 41.1602C202.577 41.1667 203.12 41.0625 203.635 40.8477C204.149 40.6263 204.608 40.3203 205.012 39.9297C205.415 39.5391 205.731 39.0833 205.959 38.5625L206.359 39.2461C206.184 39.6888 205.936 40.0957 205.617 40.4668C205.305 40.8314 204.947 41.1439 204.543 41.4043C204.139 41.6582 203.706 41.8568 203.244 42C202.782 42.1367 202.313 42.2051 201.838 42.2051C201.258 42.1921 200.738 42.0651 200.275 41.8242C199.82 41.5833 199.465 41.2415 199.211 40.7988C198.957 40.3561 198.863 39.8353 198.928 39.2363C198.999 38.5983 199.201 38.0645 199.533 37.6348C199.872 37.1986 200.292 36.8503 200.793 36.5898C201.294 36.3294 201.835 36.1406 202.414 36.0234C202.993 35.9062 203.557 35.8477 204.104 35.8477H206.545ZM216.057 39.2754C216.135 38.8066 216.053 38.429 215.812 38.1426C215.572 37.8496 215.256 37.625 214.865 37.4688C214.475 37.306 214.094 37.179 213.723 37.0879C213.332 36.9902 212.938 36.873 212.541 36.7363C212.15 36.5931 211.796 36.4141 211.477 36.1992C211.158 35.9779 210.91 35.7012 210.734 35.3691C210.559 35.0371 210.493 34.6302 210.539 34.1484C210.585 33.6602 210.731 33.2337 210.979 32.8691C211.232 32.5046 211.548 32.2018 211.926 31.9609C212.31 31.7135 212.723 31.5312 213.166 31.4141C213.615 31.2969 214.061 31.2383 214.504 31.2383C215.148 31.2448 215.734 31.3685 216.262 31.6094C216.796 31.8503 217.212 32.2051 217.512 32.6738C217.818 33.1361 217.948 33.7122 217.902 34.4023L216.77 34.3926C216.809 33.9303 216.724 33.543 216.516 33.2305C216.314 32.9115 216.031 32.6706 215.666 32.5078C215.308 32.3385 214.911 32.2507 214.475 32.2441C214.071 32.2441 213.667 32.3092 213.264 32.4395C212.867 32.5697 212.521 32.7715 212.229 33.0449C211.936 33.3184 211.753 33.6732 211.682 34.1094C211.623 34.4544 211.659 34.7441 211.789 34.9785C211.926 35.2064 212.118 35.3919 212.365 35.5352C212.619 35.6784 212.893 35.7956 213.186 35.8867C213.479 35.9779 213.755 36.0592 214.016 36.1309C214.549 36.2741 215.074 36.4596 215.588 36.6875C216.102 36.9154 216.512 37.2311 216.818 37.6348C217.131 38.0319 217.255 38.556 217.189 39.207C217.144 39.7279 216.991 40.1771 216.73 40.5547C216.47 40.9323 216.141 41.2448 215.744 41.4922C215.347 41.7331 214.914 41.9089 214.445 42.0195C213.977 42.1367 213.511 42.1953 213.049 42.1953C212.411 42.1888 211.805 42.0684 211.232 41.834C210.666 41.5996 210.21 41.248 209.865 40.7793C209.52 40.3105 209.37 39.7246 209.416 39.0215L210.559 39.0312C210.546 39.526 210.653 39.9329 210.881 40.252C211.109 40.571 211.415 40.8053 211.799 40.9551C212.189 41.1048 212.613 41.1829 213.068 41.1895C213.479 41.1895 213.898 41.1243 214.328 40.9941C214.758 40.8639 215.132 40.6589 215.451 40.3789C215.777 40.099 215.979 39.7311 216.057 39.2754ZM225.793 40.1055L226.701 34.6465C226.773 34.1452 226.727 33.7155 226.564 33.3574C226.408 32.9928 226.154 32.7161 225.803 32.5273C225.458 32.332 225.031 32.2311 224.523 32.2246C224.074 32.2181 223.632 32.2962 223.195 32.459C222.759 32.6217 222.378 32.8594 222.053 33.1719C221.734 33.4844 221.522 33.875 221.418 34.3438L220.275 34.334C220.347 33.8327 220.523 33.39 220.803 33.0059C221.083 32.6152 221.428 32.2897 221.838 32.0293C222.255 31.7624 222.704 31.5638 223.186 31.4336C223.667 31.2969 224.143 31.2318 224.611 31.2383C225.308 31.2383 225.913 31.3783 226.428 31.6582C226.942 31.9316 227.326 32.3255 227.58 32.8398C227.84 33.3477 227.925 33.9596 227.834 34.6758L226.975 39.7832C226.916 40.1283 226.877 40.4798 226.857 40.8379C226.838 41.1895 226.864 41.5345 226.936 41.873L226.926 42H225.734C225.689 41.6875 225.673 41.3717 225.686 41.0527C225.705 40.7337 225.741 40.418 225.793 40.1055ZM226.779 35.8477L226.652 36.7461H224.494C224.09 36.7461 223.664 36.7819 223.215 36.8535C222.766 36.9251 222.336 37.0488 221.926 37.2246C221.516 37.4004 221.167 37.6445 220.881 37.957C220.594 38.263 220.412 38.6536 220.334 39.1289C220.269 39.5391 220.314 39.8971 220.471 40.2031C220.633 40.5026 220.871 40.737 221.184 40.9062C221.496 41.069 221.848 41.1536 222.238 41.1602C222.811 41.1667 223.355 41.0625 223.869 40.8477C224.383 40.6263 224.842 40.3203 225.246 39.9297C225.65 39.5391 225.965 39.0833 226.193 38.5625L226.594 39.2461C226.418 39.6888 226.171 40.0957 225.852 40.4668C225.539 40.8314 225.181 41.1439 224.777 41.4043C224.374 41.6582 223.941 41.8568 223.479 42C223.016 42.1367 222.548 42.2051 222.072 42.2051C221.493 42.1921 220.972 42.0651 220.51 41.8242C220.054 41.5833 219.699 41.2415 219.445 40.7988C219.191 40.3561 219.097 39.8353 219.162 39.2363C219.234 38.5983 219.436 38.0645 219.768 37.6348C220.106 37.1986 220.526 36.8503 221.027 36.5898C221.529 36.3294 222.069 36.1406 222.648 36.0234C223.228 35.9062 223.791 35.8477 224.338 35.8477H226.779Z" fill="white"/>
<defs>
<clipPath id="clip0_17_10422">
<rect width="71" height="52" fill="white"/>
</clipPath>
</defs>
</svg>
